<?xml version="1.0" standalone="no"?><svg xmlns="http://www.w3.org/2000/svg" viewBox="0 0 1440 320"><path fill="#a2d9ff" fill-opacity="1" d="M0,0L30,32C60,64,120,128,180,138.7C240,149,300,107,360,85.3C420,64,480,64,540,58.7C600,53,660,43,720,53.3C780,64,840,96,900,122.7C960,149,1020,171,1080,181.3C1140,192,1200,192,1260,165.3C1320,139,1380,85,1410,58.7L1440,32L1440,320L1410,320C1380,320,1320,320,1260,320C1200,320,1140,320,1080,320C1020,320,960,320,900,320C840,320,780,320,720,320C660,320,600,320,540,320C480,320,420,320,360,320C300,320,240,320,180,320C120,320,60,320,30,320L0,320Z"></path></svg>