<?xml version="1.0" standalone="no"?><svg xmlns="http://www.w3.org/2000/svg" viewBox="0 0 1440 320"><path fill="#0099ff" fill-opacity="1" d="M0,192L18.5,208C36.9,224,74,256,111,261.3C147.7,267,185,245,222,208C258.5,171,295,117,332,128C369.2,139,406,213,443,213.3C480,213,517,139,554,101.3C590.8,64,628,64,665,69.3C701.5,75,738,85,775,85.3C812.3,85,849,75,886,80C923.1,85,960,107,997,106.7C1033.8,107,1071,85,1108,85.3C1144.6,85,1182,107,1218,133.3C1255.4,160,1292,192,1329,170.7C1366.2,149,1403,75,1422,37.3L1440,0L1440,320L1421.5,320C1403.1,320,1366,320,1329,320C1292.3,320,1255,320,1218,320C1181.5,320,1145,320,1108,320C1070.8,320,1034,320,997,320C960,320,923,320,886,320C849.2,320,812,320,775,320C738.5,320,702,320,665,320C627.7,320,591,320,554,320C516.9,320,480,320,443,320C406.2,320,369,320,332,320C295.4,320,258,320,222,320C184.6,320,148,320,111,320C73.8,320,37,320,18,320L0,320Z"></path></svg>